<svg width="453" height="60" viewBox="0 0 453 60" fill="none" xmlns="http://www.w3.org/2000/svg">
<g filter="url(#filter0_d_113002_9774)">
<rect x="4" y="3" width="445" height="52" rx="8" fill="#256FF1"/>
<rect x="3" y="2" width="447" height="54" rx="9" stroke="#ECF2EF" stroke-width="2"/>
<g clip-path="url(#clip0_113002_9774)">
<path d="M151.305 29.2302C151.305 28.5504 151.25 27.867 151.132 27.1982H141.7V31.0491H147.101C146.877 32.291 146.157 33.3897 145.103 34.0878V36.5864H148.325C150.217 34.8448 151.305 32.2726 151.305 29.2302Z" fill="white"/>
<path d="M141.7 39.0008C144.397 39.0008 146.672 38.1152 148.329 36.5867L145.106 34.088C144.21 34.698 143.052 35.0434 141.704 35.0434C139.095 35.0434 136.883 33.2833 136.089 30.917H132.764V33.4928C134.461 36.8696 137.919 39.0008 141.7 39.0008Z" fill="white"/>
<path d="M136.085 30.9168C135.667 29.6748 135.667 28.33 136.085 27.088V24.5122H132.764C131.345 27.3379 131.345 30.6669 132.764 33.4925L136.085 30.9168Z" fill="white"/>
<path d="M141.7 22.9581C143.126 22.936 144.504 23.4725 145.536 24.4572L148.391 21.6022C146.583 19.9046 144.184 18.9713 141.7 19.0007C137.919 19.0007 134.461 21.1319 132.764 24.5123L136.085 27.0881C136.875 24.7181 139.091 22.9581 141.7 22.9581Z" fill="white"/>
</g>
<path d="M167.134 35.216C166.474 35.216 165.868 35.138 165.316 34.982C164.776 34.826 164.296 34.61 163.876 34.334C163.468 34.058 163.126 33.752 162.85 33.416C162.586 33.068 162.4 32.708 162.292 32.336L164.344 31.706C164.5 32.15 164.806 32.54 165.262 32.876C165.718 33.212 166.282 33.386 166.954 33.398C167.734 33.398 168.352 33.236 168.808 32.912C169.264 32.588 169.492 32.162 169.492 31.634C169.492 31.154 169.3 30.764 168.916 30.464C168.532 30.152 168.016 29.912 167.368 29.744L165.82 29.348C165.232 29.192 164.698 28.964 164.218 28.664C163.75 28.364 163.378 27.986 163.102 27.53C162.838 27.074 162.706 26.534 162.706 25.91C162.706 24.734 163.09 23.822 163.858 23.174C164.626 22.514 165.724 22.184 167.152 22.184C167.956 22.184 168.658 22.31 169.258 22.562C169.87 22.802 170.374 23.138 170.77 23.57C171.166 23.99 171.46 24.47 171.652 25.01L169.636 25.658C169.456 25.178 169.144 24.782 168.7 24.47C168.256 24.158 167.704 24.002 167.044 24.002C166.36 24.002 165.82 24.164 165.424 24.488C165.04 24.812 164.848 25.262 164.848 25.838C164.848 26.306 164.998 26.672 165.298 26.936C165.61 27.188 166.03 27.38 166.558 27.512L168.106 27.89C169.234 28.166 170.11 28.64 170.734 29.312C171.358 29.984 171.67 30.728 171.67 31.544C171.67 32.264 171.496 32.9 171.148 33.452C170.8 34.004 170.284 34.436 169.6 34.748C168.928 35.06 168.106 35.216 167.134 35.216ZM173.728 35V26H175.726V35H173.728ZM174.736 24.29C174.412 24.29 174.13 24.176 173.89 23.948C173.662 23.708 173.548 23.426 173.548 23.102C173.548 22.778 173.662 22.502 173.89 22.274C174.13 22.046 174.412 21.932 174.736 21.932C175.06 21.932 175.336 22.046 175.564 22.274C175.804 22.502 175.924 22.778 175.924 23.102C175.924 23.426 175.804 23.708 175.564 23.948C175.336 24.176 175.06 24.29 174.736 24.29ZM181.972 38.834C181.336 38.834 180.76 38.78 180.244 38.672C179.74 38.564 179.314 38.438 178.966 38.294C178.618 38.15 178.348 38.012 178.156 37.88L178.93 36.26C179.098 36.344 179.32 36.446 179.596 36.566C179.884 36.698 180.22 36.812 180.604 36.908C180.988 37.004 181.42 37.052 181.9 37.052C182.416 37.052 182.878 36.944 183.286 36.728C183.694 36.524 184.012 36.206 184.24 35.774C184.468 35.342 184.582 34.79 184.582 34.118V26H186.598V34.064C186.598 35.084 186.406 35.948 186.022 36.656C185.638 37.376 185.098 37.916 184.402 38.276C183.706 38.648 182.896 38.834 181.972 38.834ZM181.666 34.82C180.85 34.82 180.136 34.634 179.524 34.262C178.924 33.89 178.45 33.374 178.102 32.714C177.766 32.042 177.598 31.268 177.598 30.392C177.598 29.456 177.766 28.646 178.102 27.962C178.45 27.278 178.924 26.744 179.524 26.36C180.136 25.976 180.85 25.784 181.666 25.784C182.398 25.784 183.034 25.976 183.574 26.36C184.126 26.744 184.552 27.284 184.852 27.98C185.152 28.664 185.302 29.474 185.302 30.41C185.302 31.298 185.152 32.072 184.852 32.732C184.552 33.392 184.126 33.908 183.574 34.28C183.034 34.64 182.398 34.82 181.666 34.82ZM182.224 33.11C182.68 33.11 183.076 32.99 183.412 32.75C183.76 32.51 184.03 32.186 184.222 31.778C184.414 31.358 184.51 30.878 184.51 30.338C184.51 29.786 184.414 29.306 184.222 28.898C184.03 28.478 183.76 28.154 183.412 27.926C183.064 27.686 182.662 27.566 182.206 27.566C181.726 27.566 181.3 27.686 180.928 27.926C180.568 28.154 180.28 28.478 180.064 28.898C179.86 29.306 179.758 29.786 179.758 30.338C179.758 30.878 179.86 31.358 180.064 31.778C180.28 32.186 180.574 32.51 180.946 32.75C181.318 32.99 181.744 33.11 182.224 33.11ZM188.825 35V26H190.715L190.841 27.656V35H188.825ZM194.927 35V30.392H196.943V35H194.927ZM194.927 30.392C194.927 29.672 194.843 29.12 194.675 28.736C194.519 28.34 194.291 28.064 193.991 27.908C193.703 27.752 193.361 27.674 192.965 27.674C192.293 27.662 191.771 27.884 191.399 28.34C191.027 28.796 190.841 29.45 190.841 30.302H190.085C190.085 29.354 190.223 28.544 190.499 27.872C190.775 27.188 191.171 26.672 191.687 26.324C192.203 25.964 192.815 25.784 193.523 25.784C194.243 25.784 194.855 25.928 195.359 26.216C195.875 26.504 196.265 26.954 196.529 27.566C196.805 28.166 196.943 28.952 196.943 29.924V30.392H194.927ZM203.453 35V26H205.451V35H203.453ZM204.461 24.29C204.137 24.29 203.855 24.176 203.615 23.948C203.387 23.708 203.273 23.426 203.273 23.102C203.273 22.778 203.387 22.502 203.615 22.274C203.855 22.046 204.137 21.932 204.461 21.932C204.785 21.932 205.061 22.046 205.289 22.274C205.529 22.502 205.649 22.778 205.649 23.102C205.649 23.426 205.529 23.708 205.289 23.948C205.061 24.176 204.785 24.29 204.461 24.29ZM207.827 35V26H209.717L209.843 27.656V35H207.827ZM213.929 35V30.392H215.945V35H213.929ZM213.929 30.392C213.929 29.672 213.845 29.12 213.677 28.736C213.521 28.34 213.293 28.064 212.993 27.908C212.705 27.752 212.363 27.674 211.967 27.674C211.295 27.662 210.773 27.884 210.401 28.34C210.029 28.796 209.843 29.45 209.843 30.302H209.087C209.087 29.354 209.225 28.544 209.501 27.872C209.777 27.188 210.173 26.672 210.689 26.324C211.205 25.964 211.817 25.784 212.525 25.784C213.245 25.784 213.857 25.928 214.361 26.216C214.877 26.504 215.267 26.954 215.531 27.566C215.807 28.166 215.945 28.952 215.945 29.924V30.392H213.929ZM230.663 35L233.669 26H235.703L232.643 35H230.663ZM224.633 35L227.567 26H229.349L226.451 35H224.633ZM224.453 35L221.393 26H223.427L226.361 35H224.453ZM230.645 35L227.765 26H229.547L232.481 35H230.645ZM237.133 35V26H239.131V35H237.133ZM238.141 24.29C237.817 24.29 237.535 24.176 237.295 23.948C237.067 23.708 236.953 23.426 236.953 23.102C236.953 22.778 237.067 22.502 237.295 22.274C237.535 22.046 237.817 21.932 238.141 21.932C238.465 21.932 238.741 22.046 238.969 22.274C239.209 22.502 239.329 22.778 239.329 23.102C239.329 23.426 239.209 23.708 238.969 23.948C238.741 24.176 238.465 24.29 238.141 24.29ZM245.089 35.216C244.141 35.216 243.415 34.982 242.911 34.514C242.419 34.034 242.173 33.35 242.173 32.462V23.192H244.171V32.084C244.171 32.504 244.267 32.822 244.459 33.038C244.663 33.254 244.957 33.362 245.341 33.362C245.461 33.362 245.593 33.338 245.737 33.29C245.881 33.242 246.043 33.152 246.223 33.02L246.961 34.55C246.649 34.766 246.337 34.928 246.025 35.036C245.713 35.156 245.401 35.216 245.089 35.216ZM240.679 27.728V26H246.601V27.728H240.679ZM248.591 35V22.4H250.607V35H248.591ZM254.693 35V30.392H256.709V35H254.693ZM254.693 30.392C254.693 29.672 254.609 29.12 254.441 28.736C254.273 28.34 254.039 28.064 253.739 27.908C253.451 27.752 253.115 27.674 252.731 27.674C252.047 27.662 251.519 27.884 251.147 28.34C250.787 28.796 250.607 29.45 250.607 30.302H249.833C249.833 29.354 249.971 28.544 250.247 27.872C250.535 27.188 250.937 26.672 251.453 26.324C251.969 25.964 252.581 25.784 253.289 25.784C253.997 25.784 254.609 25.928 255.125 26.216C255.641 26.504 256.031 26.954 256.295 27.566C256.571 28.166 256.709 28.952 256.709 29.924V30.392H254.693ZM269.249 35.216C267.977 35.216 266.843 34.94 265.847 34.388C264.863 33.824 264.089 33.056 263.525 32.084C262.961 31.1 262.679 29.978 262.679 28.718C262.679 27.434 262.961 26.306 263.525 25.334C264.089 24.35 264.863 23.582 265.847 23.03C266.843 22.466 267.977 22.184 269.249 22.184C269.981 22.184 270.665 22.298 271.301 22.526C271.949 22.754 272.531 23.066 273.047 23.462C273.563 23.846 273.983 24.296 274.307 24.812L272.615 25.892C272.387 25.544 272.093 25.232 271.733 24.956C271.373 24.68 270.977 24.47 270.545 24.326C270.125 24.17 269.693 24.092 269.249 24.092C268.385 24.092 267.617 24.29 266.945 24.686C266.285 25.082 265.763 25.628 265.379 26.324C264.995 27.008 264.803 27.806 264.803 28.718C264.803 29.606 264.989 30.398 265.361 31.094C265.745 31.79 266.273 32.336 266.945 32.732C267.629 33.128 268.415 33.326 269.303 33.326C269.999 33.326 270.623 33.182 271.175 32.894C271.727 32.606 272.159 32.204 272.471 31.688C272.795 31.172 272.957 30.578 272.957 29.906L274.955 29.654C274.955 30.794 274.709 31.784 274.217 32.624C273.737 33.452 273.065 34.094 272.201 34.55C271.349 34.994 270.365 35.216 269.249 35.216ZM269.933 30.068V28.376H274.955V29.78L273.839 30.068H269.933ZM280.733 35.216C279.833 35.216 279.029 35.018 278.321 34.622C277.625 34.214 277.079 33.656 276.683 32.948C276.287 32.24 276.089 31.424 276.089 30.5C276.089 29.576 276.281 28.76 276.665 28.052C277.061 27.344 277.607 26.792 278.303 26.396C278.999 25.988 279.797 25.784 280.697 25.784C281.597 25.784 282.395 25.988 283.091 26.396C283.787 26.792 284.327 27.344 284.711 28.052C285.107 28.76 285.305 29.576 285.305 30.5C285.305 31.424 285.113 32.24 284.729 32.948C284.345 33.656 283.805 34.214 283.109 34.622C282.413 35.018 281.621 35.216 280.733 35.216ZM280.733 33.362C281.225 33.362 281.663 33.242 282.047 33.002C282.431 32.75 282.731 32.414 282.947 31.994C283.163 31.562 283.271 31.064 283.271 30.5C283.271 29.936 283.157 29.444 282.929 29.024C282.713 28.592 282.413 28.256 282.029 28.016C281.645 27.764 281.201 27.638 280.697 27.638C280.193 27.638 279.749 27.758 279.365 27.998C278.981 28.238 278.681 28.574 278.465 29.006C278.249 29.438 278.141 29.936 278.141 30.5C278.141 31.064 278.249 31.562 278.465 31.994C278.693 32.414 278.999 32.75 279.383 33.002C279.779 33.242 280.229 33.362 280.733 33.362ZM291.192 35.216C290.292 35.216 289.488 35.018 288.78 34.622C288.084 34.214 287.538 33.656 287.142 32.948C286.746 32.24 286.548 31.424 286.548 30.5C286.548 29.576 286.74 28.76 287.124 28.052C287.52 27.344 288.066 26.792 288.762 26.396C289.458 25.988 290.256 25.784 291.156 25.784C292.056 25.784 292.854 25.988 293.55 26.396C294.246 26.792 294.786 27.344 295.17 28.052C295.566 28.76 295.764 29.576 295.764 30.5C295.764 31.424 295.572 32.24 295.188 32.948C294.804 33.656 294.264 34.214 293.568 34.622C292.872 35.018 292.08 35.216 291.192 35.216ZM291.192 33.362C291.684 33.362 292.122 33.242 292.506 33.002C292.89 32.75 293.19 32.414 293.406 31.994C293.622 31.562 293.73 31.064 293.73 30.5C293.73 29.936 293.616 29.444 293.388 29.024C293.172 28.592 292.872 28.256 292.488 28.016C292.104 27.764 291.66 27.638 291.156 27.638C290.652 27.638 290.208 27.758 289.824 27.998C289.44 28.238 289.14 28.574 288.924 29.006C288.708 29.438 288.6 29.936 288.6 30.5C288.6 31.064 288.708 31.562 288.924 31.994C289.152 32.414 289.458 32.75 289.842 33.002C290.238 33.242 290.688 33.362 291.192 33.362ZM301.381 38.834C300.745 38.834 300.169 38.78 299.653 38.672C299.149 38.564 298.723 38.438 298.375 38.294C298.027 38.15 297.757 38.012 297.565 37.88L298.339 36.26C298.507 36.344 298.729 36.446 299.005 36.566C299.293 36.698 299.629 36.812 300.013 36.908C300.397 37.004 300.829 37.052 301.309 37.052C301.825 37.052 302.287 36.944 302.695 36.728C303.103 36.524 303.421 36.206 303.649 35.774C303.877 35.342 303.991 34.79 303.991 34.118V26H306.007V34.064C306.007 35.084 305.815 35.948 305.431 36.656C305.047 37.376 304.507 37.916 303.811 38.276C303.115 38.648 302.305 38.834 301.381 38.834ZM301.075 34.82C300.259 34.82 299.545 34.634 298.933 34.262C298.333 33.89 297.859 33.374 297.511 32.714C297.175 32.042 297.007 31.268 297.007 30.392C297.007 29.456 297.175 28.646 297.511 27.962C297.859 27.278 298.333 26.744 298.933 26.36C299.545 25.976 300.259 25.784 301.075 25.784C301.807 25.784 302.443 25.976 302.983 26.36C303.535 26.744 303.961 27.284 304.261 27.98C304.561 28.664 304.711 29.474 304.711 30.41C304.711 31.298 304.561 32.072 304.261 32.732C303.961 33.392 303.535 33.908 302.983 34.28C302.443 34.64 301.807 34.82 301.075 34.82ZM301.633 33.11C302.089 33.11 302.485 32.99 302.821 32.75C303.169 32.51 303.439 32.186 303.631 31.778C303.823 31.358 303.919 30.878 303.919 30.338C303.919 29.786 303.823 29.306 303.631 28.898C303.439 28.478 303.169 28.154 302.821 27.926C302.473 27.686 302.071 27.566 301.615 27.566C301.135 27.566 300.709 27.686 300.337 27.926C299.977 28.154 299.689 28.478 299.473 28.898C299.269 29.306 299.167 29.786 299.167 30.338C299.167 30.878 299.269 31.358 299.473 31.778C299.689 32.186 299.983 32.51 300.355 32.75C300.727 32.99 301.153 33.11 301.633 33.11ZM308.233 35V22.4H310.249V35H308.233ZM316.501 35.216C315.625 35.216 314.845 35.018 314.161 34.622C313.489 34.214 312.955 33.656 312.559 32.948C312.175 32.24 311.983 31.424 311.983 30.5C311.983 29.576 312.181 28.76 312.577 28.052C312.973 27.344 313.513 26.792 314.197 26.396C314.893 25.988 315.685 25.784 316.573 25.784C317.377 25.784 318.103 25.994 318.751 26.414C319.399 26.822 319.909 27.416 320.281 28.196C320.665 28.976 320.857 29.906 320.857 30.986H313.783L314.053 30.734C314.053 31.286 314.173 31.766 314.413 32.174C314.653 32.57 314.971 32.876 315.367 33.092C315.763 33.308 316.201 33.416 316.681 33.416C317.233 33.416 317.689 33.296 318.049 33.056C318.409 32.804 318.691 32.48 318.895 32.084L320.677 32.84C320.425 33.32 320.101 33.74 319.705 34.1C319.321 34.46 318.859 34.736 318.319 34.928C317.791 35.12 317.185 35.216 316.501 35.216ZM314.179 29.69L313.891 29.438H318.967L318.697 29.69C318.697 29.198 318.589 28.796 318.373 28.484C318.157 28.16 317.881 27.92 317.545 27.764C317.221 27.596 316.879 27.512 316.519 27.512C316.159 27.512 315.799 27.596 315.439 27.764C315.079 27.92 314.779 28.16 314.539 28.484C314.299 28.796 314.179 29.198 314.179 29.69Z" fill="white"/>
</g>
<defs>
<filter id="filter0_d_113002_9774" x="0" y="0" width="453" height="60" filterUnits="userSpaceOnUse" color-interpolation-filters="sRGB">
<feFlood flood-opacity="0" result="BackgroundImageFix"/>
<feColorMatrix in="SourceAlpha" type="matrix" values="0 0 0 0 0 0 0 0 0 0 0 0 0 0 0 0 0 0 127 0" result="hardAlpha"/>
<feOffset dy="1"/>
<feGaussianBlur stdDeviation="1"/>
<feColorMatrix type="matrix" values="0 0 0 0 0.0627451 0 0 0 0 0.0941176 0 0 0 0 0.156863 0 0 0 0.05 0"/>
<feBlend mode="normal" in2="BackgroundImageFix" result="effect1_dropShadow_113002_9774"/>
<feBlend mode="normal" in="SourceGraphic" in2="effect1_dropShadow_113002_9774" result="shape"/>
</filter>
<clipPath id="clip0_113002_9774">
<rect width="20" height="20" fill="white" transform="translate(131.5 19)"/>
</clipPath>
</defs>
</svg>
